# xmcd
#
# Track frame offsets:
#	150
#	18877
#	38939
#	55936
#	70643
#	85090
#	100592
#	112409
#	128291
#	139783
#
# Disc length: 2096 seconds
#
# Revision: 0
# Processed by: cddbd v1.5.1PL2 Copyright (c) Steve Scherf et al.
# Submitted via: audiograbber 1.83.01
#
DISCID=7a082e0a
DTITLE=Ben Prestage - Beale Street
DYEAR=2006
DGENRE=Blues
TTITLE0=Jitterbug Swing
TTITLE1=The Giver
TTITLE2=Stuttgart, AK
TTITLE3=Preachin' Blues
TTITLE4=Memphis
TTITLE5=Back To The Country
TTITLE6=5 Letter 4 Word Blues
TTITLE7=Do-Boy's Blues
TTITLE8=Big Fat Mama
TTITLE9=Mexican Whorehouse
EXTD=
EXTT0=
EXTT1=
EXTT2=
EXTT3=
EXTT4=
EXTT5=
EXTT6=
EXTT7=
EXTT8=
EXTT9=
PLAYORDER=
